<?xml version="1.0" encoding="UTF-8"?>
<svg version="1.1" xmlns="http://www.w3.org/2000/svg" width="128" height="128">
<path d="M0 0 C2.99344747 1.70033532 5.89759171 3.47182122 8.78369141 5.34570312 C10.97445327 6.76138459 13.18815971 8.13389385 15.41015625 9.5 C18.90283381 11.64780191 22.38731977 13.80806971 25.8671875 15.9765625 C31.93237295 19.74476387 38.0391823 23.44293036 44.14910889 27.1378479 C49.38401762 30.306039 54.61022525 33.48854658 59.8359375 36.671875 C60.8372168 37.2807959 61.83849609 37.8897168 62.87011719 38.51708984 C65.53196847 40.14163575 68.18540661 41.77894293 70.8359375 43.421875 C71.6005127 43.8866626 72.36508789 44.3514502 73.15283203 44.83032227 C78.73939715 48.3233726 83.00476453 52.11017187 84.8359375 58.671875 C85.46214571 65.03832518 84.55603049 69.42077835 80.8359375 74.671875 C74.6539198 80.34945893 66.9348459 84.38314994 59.7734375 88.671875 C58.52421769 89.4244252 57.27527977 90.1774435 56.02661133 90.9309082 C53.49988512 92.45515974 50.97205299 93.97754993 48.44335938 95.49853516 C43.29160472 98.59945708 38.15746996 101.72922798 33.0234375 104.859375 C31.17972833 105.9818379 29.33597836 107.10423378 27.4921875 108.2265625 C23.44947768 110.68839602 19.40810822 113.15241851 15.3671875 115.6171875 C14.30604736 116.26405518 13.24490723 116.91092285 12.15161133 117.57739258 C10.10677087 118.82395848 8.06232055 120.07116465 6.01831055 121.3190918 C5.10605713 121.87508057 4.19380371 122.43106934 3.25390625 123.00390625 C2.44719482 123.49608643 1.6404834 123.9882666 0.80932617 124.49536133 C-4.28787374 127.53425857 -9.33343658 127.2019319 -15.1640625 126.671875 C-20.54581753 125.00495972 -23.48068434 121.52259707 -26.1640625 116.671875 C-27.07635112 113.93500913 -27.29493699 112.31084278 -27.31123352 109.49263 C-27.32196648 108.21642036 -27.32196648 108.21642036 -27.33291626 106.91442871 C-27.33694962 105.518797 -27.33694962 105.518797 -27.34106445 104.0949707 C-27.34763565 103.11251877 -27.35420685 102.13006683 -27.36097717 101.11784363 C-27.38071397 97.86111374 -27.39237439 94.60443 -27.40234375 91.34765625 C-27.40641928 90.23507132 -27.4104948 89.12248638 -27.41469383 87.97618675 C-27.43555736 82.08609579 -27.44985722 76.19602813 -27.45922852 70.3059082 C-27.4702864 64.22741847 -27.50467872 58.14929545 -27.54440022 52.07093525 C-27.57057034 47.39283069 -27.57892079 42.7148134 -27.58250999 38.03664207 C-27.58737581 35.79640416 -27.59898959 33.55617013 -27.61754799 31.3160038 C-27.64194445 28.17562613 -27.640973 25.03619575 -27.6340332 21.89575195 C-27.65324829 20.51530197 -27.65324829 20.51530197 -27.67285156 19.10696411 C-27.62504678 13.15251274 -26.54686861 8.64088678 -23.1640625 3.671875 C-16.71814406 -2.4596084 -8.18141954 -3.4341761 0 0 Z " fill="#FC465F" transform="translate(35.1640625,1.328125)"/>
<path d="M0 0 C2.99344747 1.70033532 5.89759171 3.47182122 8.78369141 5.34570312 C10.97445327 6.76138459 13.18815971 8.13389385 15.41015625 9.5 C18.90283381 11.64780191 22.38731977 13.80806971 25.8671875 15.9765625 C31.93237295 19.74476387 38.0391823 23.44293036 44.14910889 27.1378479 C49.38401762 30.306039 54.61022525 33.48854658 59.8359375 36.671875 C60.8372168 37.2807959 61.83849609 37.8897168 62.87011719 38.51708984 C65.53196847 40.14163575 68.18540661 41.77894293 70.8359375 43.421875 C71.6005127 43.8866626 72.36508789 44.3514502 73.15283203 44.83032227 C78.73939715 48.3233726 83.00476453 52.11017187 84.8359375 58.671875 C85.46214571 65.03832518 84.55603049 69.42077835 80.8359375 74.671875 C74.6539198 80.34945893 66.9348459 84.38314994 59.7734375 88.671875 C58.52421769 89.4244252 57.27527977 90.1774435 56.02661133 90.9309082 C53.49988512 92.45515974 50.97205299 93.97754993 48.44335938 95.49853516 C43.29160472 98.59945708 38.15746996 101.72922798 33.0234375 104.859375 C31.17972833 105.9818379 29.33597836 107.10423378 27.4921875 108.2265625 C23.44947768 110.68839602 19.40810822 113.15241851 15.3671875 115.6171875 C14.30604736 116.26405518 13.24490723 116.91092285 12.15161133 117.57739258 C10.10677087 118.82395848 8.06232055 120.07116465 6.01831055 121.3190918 C5.10605713 121.87508057 4.19380371 122.43106934 3.25390625 123.00390625 C2.44719482 123.49608643 1.6404834 123.9882666 0.80932617 124.49536133 C-4.28787374 127.53425857 -9.33343658 127.2019319 -15.1640625 126.671875 C-20.54581753 125.00495972 -23.48068434 121.52259707 -26.1640625 116.671875 C-27.07635112 113.93500913 -27.29493699 112.31084278 -27.31123352 109.49263 C-27.32196648 108.21642036 -27.32196648 108.21642036 -27.33291626 106.91442871 C-27.33694962 105.518797 -27.33694962 105.518797 -27.34106445 104.0949707 C-27.34763565 103.11251877 -27.35420685 102.13006683 -27.36097717 101.11784363 C-27.38071397 97.86111374 -27.39237439 94.60443 -27.40234375 91.34765625 C-27.40641928 90.23507132 -27.4104948 89.12248638 -27.41469383 87.97618675 C-27.43555736 82.08609579 -27.44985722 76.19602813 -27.45922852 70.3059082 C-27.4702864 64.22741847 -27.50467872 58.14929545 -27.54440022 52.07093525 C-27.57057034 47.39283069 -27.57892079 42.7148134 -27.58250999 38.03664207 C-27.58737581 35.79640416 -27.59898959 33.55617013 -27.61754799 31.3160038 C-27.64194445 28.17562613 -27.640973 25.03619575 -27.6340332 21.89575195 C-27.65324829 20.51530197 -27.65324829 20.51530197 -27.67285156 19.10696411 C-27.62504678 13.15251274 -26.54686861 8.64088678 -23.1640625 3.671875 C-16.71814406 -2.4596084 -8.18141954 -3.4341761 0 0 Z M-22.29968262 7.18701172 C-24.79852874 11.85780719 -24.7265031 15.58825352 -24.68164062 20.8046875 C-24.6886499 21.81029724 -24.69565918 22.81590698 -24.70288086 23.85198975 C-24.72044758 27.1672346 -24.70884227 30.48162186 -24.6953125 33.796875 C-24.69800778 36.10563317 -24.7018905 38.41439024 -24.70690918 40.72314453 C-24.71280246 45.55837833 -24.7042464 50.39331626 -24.68554688 55.22851562 C-24.66275785 61.42265372 -24.67588178 67.61609851 -24.69983673 73.81021118 C-24.71429904 78.5766318 -24.70968663 83.34288837 -24.69932556 88.10931396 C-24.6966595 90.3930469 -24.69992378 92.67679478 -24.70924377 94.96051025 C-24.71941607 98.15376165 -24.70389757 101.34589431 -24.68164062 104.5390625 C-24.68973755 105.48054138 -24.69783447 106.42202026 -24.70617676 107.39202881 C-24.63398607 112.99002979 -23.92298375 116.24496368 -20.1640625 120.671875 C-15.93882989 124.40580149 -12.93311804 125.07711207 -7.52075195 124.96630859 C-3.67042074 124.48526649 -0.85305279 122.82639042 2.3984375 120.796875 C3.08478271 120.38977295 3.77112793 119.9826709 4.47827148 119.56323242 C6.61194913 118.28828636 8.72553927 116.98493469 10.8359375 115.671875 C11.46886719 115.28177246 12.10179687 114.89166992 12.75390625 114.48974609 C15.98509161 112.49565764 19.20104392 110.47860609 22.41015625 108.44921875 C27.47458146 105.25605181 32.59300306 102.15327648 37.7109375 99.046875 C38.66540771 98.46526611 39.61987793 97.88365723 40.60327148 97.28442383 C45.43119919 94.34269712 50.26478284 91.41140369 55.11581421 88.50796509 C57.49095435 87.08376778 59.86066636 85.65069446 62.22955322 84.21612549 C63.92172537 83.19552503 65.62070774 82.18624316 67.31982422 81.17724609 C73.45437737 77.45313761 78.54773505 74.2482799 81.8359375 67.671875 C82.1879058 65.24343922 82.1879058 65.24343922 82.2734375 62.484375 C82.33402344 61.56269531 82.39460938 60.64101563 82.45703125 59.69140625 C81.29860026 54.05953733 77.74486471 51.00900453 73.13647461 47.78100586 C69.8244703 45.69700409 66.46649067 43.70389248 63.0859375 41.734375 C61.83338596 40.99181654 60.58169061 40.24781213 59.33081055 39.50244141 C57.40327106 38.35424559 55.47518242 37.20709374 53.54423523 36.06463623 C47.19440172 32.30725298 40.9203124 28.43302297 34.6484375 24.546875 C25.7453464 19.05120733 16.80740961 13.61738751 7.8359375 8.234375 C6.22295776 7.26636963 6.22295776 7.26636963 4.57739258 6.27880859 C-5.39591604 0.3093117 -13.53924737 -3.13022222 -22.29968262 7.18701172 Z " fill="#1F080B" transform="translate(35.1640625,1.328125)"/>
<path d="M0 0 C0.33 0 0.66 0 1 0 C1.00364563 1.23504272 1.00729126 2.47008545 1.01104736 3.74255371 C1.0480273 15.39540571 1.10583313 27.04799418 1.18390274 38.70064545 C1.22337103 44.69106626 1.25556289 50.68134022 1.27099609 56.671875 C1.28616664 62.45570502 1.32062007 68.23913127 1.36830902 74.02278137 C1.38311856 76.22667425 1.39104077 78.43062478 1.39188385 80.63456726 C1.39425645 83.72751653 1.42136107 86.81935265 1.45410156 89.91210938 C1.44655602 91.27157684 1.44655602 91.27157684 1.43885803 92.6585083 C1.53509714 98.55490416 2.64506346 103.08130333 6 108 C10.13127454 111.84304608 13.24911908 112.39281681 18.64331055 112.29003906 C22.49532919 111.81596902 25.31080858 110.15474486 28.5625 108.125 C29.24739502 107.71862305 29.93229004 107.31224609 30.63793945 106.89355469 C32.77283586 105.6175471 34.88776394 104.31311826 37 103 C37.96534668 102.40687012 37.96534668 102.40687012 38.95019531 101.80175781 C44.57226604 98.34535377 50.14627856 94.81339301 55.71630859 91.27392578 C58.59799532 89.44614645 61.48612164 87.62888565 64.375 85.8125 C65.29756592 85.22307617 66.22013184 84.63365234 67.1706543 84.02636719 C68.02957275 83.48786133 68.88849121 82.94935547 69.7734375 82.39453125 C70.54091309 81.90831299 71.30838867 81.42209473 72.09912109 80.92114258 C72.72641113 80.61716553 73.35370117 80.31318848 74 80 C74.66 80.33 75.32 80.66 76 81 C71.58610419 86.00055284 66.33105647 89.06134112 60.625 92.4375 C58.57146672 93.66902431 56.51808602 94.90080308 54.46484375 96.1328125 C53.4063623 96.76477539 52.34788086 97.39673828 51.25732422 98.04785156 C45.88080822 101.27005378 40.53607605 104.5442086 35.1875 107.8125 C33.26489993 108.98662245 31.34177051 110.15987881 29.41796875 111.33203125 C28.61125732 111.82421143 27.8045459 112.3163916 26.97338867 112.82348633 C21.87618876 115.86238357 16.83062592 115.5300569 11 115 C5.61824497 113.33308472 2.68337816 109.85072207 0 105 C-0.91654284 102.25037147 -1.12554299 100.64208156 -1.12698364 97.81161499 C-1.12980347 96.9591066 -1.13262329 96.10659821 -1.13552856 95.22825623 C-1.13350433 94.29618851 -1.1314801 93.36412079 -1.12939453 92.40380859 C-1.13202301 90.92789497 -1.13202301 90.92789497 -1.13470459 89.42216492 C-1.13911223 86.16423793 -1.13618936 82.90636505 -1.1328125 79.6484375 C-1.13348574 77.39067576 -1.13445594 75.13291408 -1.13571167 72.87515259 C-1.13718708 68.14234731 -1.1350387 63.4095609 -1.13037109 58.67675781 C-1.12466739 52.59548636 -1.12795787 46.51425897 -1.13394356 40.43298912 C-1.13754783 35.77147079 -1.13641132 31.109963 -1.13381577 26.44844437 C-1.13314646 24.20523702 -1.13397503 21.96202873 -1.13629532 19.71882248 C-1.13882036 16.59165642 -1.13498365 13.46456296 -1.12939453 10.33740234 C-1.13141876 9.40128616 -1.13344299 8.46516998 -1.13552856 7.50068665 C-1.11426365 1.11426365 -1.11426365 1.11426365 0 0 Z " fill="#050102" transform="translate(9,13)"/>
</svg>
